<svg width="38" height="37" viewBox="0 0 38 37" fill="none" xmlns="http://www.w3.org/2000/svg">
<path d="M29.6253 9.25H8.04199C5.48768 9.25 3.41699 11.3207 3.41699 13.875V18.0697L13.958 21.5833H23.7093L34.2503 18.0697V13.875C34.2503 11.3207 32.1796 9.25 29.6253 9.25Z" fill="#F899CC"/>
<path d="M15.7503 9.25V7.70833H21.917V9.25H25.0003V7.70833C24.9984 6.00626 23.6191 4.62694 21.917 4.625H15.7503C14.0482 4.62694 12.6689 6.00626 12.667 7.70833V9.25H15.7503ZM13.958 21.5833L3.41699 18.0696V27.75C3.41978 30.3032 5.48882 32.3722 8.04199 32.375H29.6253C32.1785 32.3722 34.2475 30.3032 34.2503 27.75V18.0696L23.7093 21.5833H13.958Z" fill="#ED017F"/>
</svg>
