<svg width="841" height="1265" viewBox="0 0 841 1265" fill="none" xmlns="http://www.w3.org/2000/svg">
<g filter="url(#filter0_f_1_102)">
<path fill-rule="evenodd" clip-rule="evenodd" d="M588.918 206.024C630.12 204.647 642.279 262.42 669.72 293.1C694.251 320.526 736.527 337 738.873 373.676C741.27 411.153 709.334 440.807 680.729 465.231C654.715 487.444 623.134 500.255 588.918 501.715C552.924 503.25 513.938 499.246 488.899 473.416C464.122 447.855 459.885 408.887 464.803 373.676C469.097 342.936 494.871 323.294 513.356 298.325C537.947 265.108 547.536 207.407 588.918 206.024Z" fill="#345D80" fill-opacity="0.4"/>
</g>
<g filter="url(#filter1_f_1_102)">
<path fill-rule="evenodd" clip-rule="evenodd" d="M445.655 101.034C476.936 99.8471 481.921 130.444 503.025 145.02C522.157 158.235 557.83 163.399 561.598 181.117C565.526 199.591 539.855 214.123 520.749 228.366C498.945 244.622 478.903 263.702 445.655 267.554C407.273 272.001 365.517 266.231 336.665 249.695C306.758 232.554 281.01 205.037 294.84 181.117C308.126 158.136 365.108 164.896 394.809 149.124C419.12 136.216 413.903 102.238 445.655 101.034Z" fill="#ECAB30" fill-opacity="0.67"/>
</g>
<g filter="url(#filter2_f_1_102)">
<path fill-rule="evenodd" clip-rule="evenodd" d="M613.842 634.823C630.545 639.365 645.987 646.702 656.91 660.129C666.719 672.186 667.041 687.837 669.459 703.191C672.655 723.478 684.676 745.446 673.012 762.352C660.627 780.301 635.613 785.095 613.842 783.802C593.235 782.578 576.447 769.748 561.306 755.718C545.338 740.922 530.657 724.623 526.848 703.191C522.23 677.212 517.852 644.265 538.599 627.96C559.183 611.783 588.578 627.954 613.842 634.823Z" fill="#F72532" fill-opacity="0.51"/>
</g>
<g filter="url(#filter3_f_1_102)">
<path fill-rule="evenodd" clip-rule="evenodd" d="M370.842 367.823C387.545 372.365 402.987 379.702 413.91 393.129C423.719 405.186 424.041 420.837 426.459 436.191C429.655 456.478 441.676 478.446 430.012 495.352C417.627 513.301 392.613 518.095 370.842 516.802C350.235 515.578 333.447 502.748 318.306 488.718C302.338 473.922 287.657 457.623 283.848 436.191C279.23 410.212 274.852 377.265 295.599 360.96C316.183 344.783 345.578 360.954 370.842 367.823Z" fill="#F72532" fill-opacity="0.51"/>
</g>
<g filter="url(#filter4_f_1_102)">
<path fill-rule="evenodd" clip-rule="evenodd" d="M311.474 989.332C346.499 994.041 378.877 1001.65 401.78 1015.57C422.347 1028.07 423.022 1044.3 428.092 1060.22C434.793 1081.25 459.997 1104.03 435.541 1121.55C409.573 1140.17 357.124 1145.13 311.474 1143.79C268.266 1142.53 233.066 1129.22 201.319 1114.68C167.837 1099.34 137.054 1082.44 129.068 1060.22C119.386 1033.28 110.205 999.121 153.708 982.216C196.868 965.444 258.501 982.21 311.474 989.332Z" fill="#F72532" fill-opacity="0.51"/>
</g>
<g filter="url(#filter5_f_1_102)">
<path fill-rule="evenodd" clip-rule="evenodd" d="M467.03 789.079C489.119 779.108 516.175 785.046 537.644 796.281C561.078 808.545 592.856 827.146 589.794 853.325C586.321 883.018 539.01 885.527 524.165 911.513C514.248 928.874 534.287 953.328 523.17 969.953C511.364 987.608 488.319 997.764 467.03 996.955C445.981 996.155 429.664 979.731 413.921 965.8C399.653 953.175 387.951 938.558 381.023 920.851C373.737 902.227 362.633 879.545 373.631 862.823C384.997 845.541 415.157 857.07 431.414 844.234C449.047 830.312 446.533 798.332 467.03 789.079Z" fill="#33B0D3" fill-opacity="0.55"/>
</g>
<g filter="url(#filter6_f_1_102)">
<path fill-rule="evenodd" clip-rule="evenodd" d="M478.03 470.079C500.119 460.108 527.175 466.046 548.644 477.281C572.078 489.545 603.856 508.146 600.794 534.325C597.321 564.018 550.01 566.527 535.165 592.513C525.248 609.874 545.287 634.328 534.17 650.953C522.364 668.608 499.319 678.764 478.03 677.955C456.981 677.155 440.664 660.731 424.921 646.8C410.653 634.175 398.951 619.558 392.023 601.851C384.737 583.227 373.633 560.545 384.631 543.823C395.997 526.541 426.157 538.07 442.414 525.234C460.047 511.312 457.533 479.332 478.03 470.079Z" fill="#33B0D3" fill-opacity="0.55"/>
</g>
<defs>
<filter id="filter0_f_1_102" x="361.4" y="104.4" width="479.2" height="499.2" filterUnits="userSpaceOnUse" color-interpolation-filters="sRGB">
<feFlood flood-opacity="0" result="BackgroundImageFix"/>
<feBlend mode="normal" in="SourceGraphic" in2="BackgroundImageFix" result="shape"/>
<feGaussianBlur stdDeviation="50.8" result="effect1_foregroundBlur_1_102"/>
</filter>
<filter id="filter1_f_1_102" x="190.7" y="0.699997" width="471.6" height="368.6" filterUnits="userSpaceOnUse" color-interpolation-filters="sRGB">
<feFlood flood-opacity="0" result="BackgroundImageFix"/>
<feBlend mode="normal" in="SourceGraphic" in2="BackgroundImageFix" result="shape"/>
<feGaussianBlur stdDeviation="50.15" result="effect1_foregroundBlur_1_102"/>
</filter>
<filter id="filter2_f_1_102" x="402.2" y="500.2" width="396.6" height="404.6" filterUnits="userSpaceOnUse" color-interpolation-filters="sRGB">
<feFlood flood-opacity="0" result="BackgroundImageFix"/>
<feBlend mode="normal" in="SourceGraphic" in2="BackgroundImageFix" result="shape"/>
<feGaussianBlur stdDeviation="60.4" result="effect1_foregroundBlur_1_102"/>
</filter>
<filter id="filter3_f_1_102" x="159.2" y="233.2" width="396.6" height="404.6" filterUnits="userSpaceOnUse" color-interpolation-filters="sRGB">
<feFlood flood-opacity="0" result="BackgroundImageFix"/>
<feBlend mode="normal" in="SourceGraphic" in2="BackgroundImageFix" result="shape"/>
<feGaussianBlur stdDeviation="60.4" result="effect1_foregroundBlur_1_102"/>
</filter>
<filter id="filter4_f_1_102" x="0.199997" y="854.2" width="566.6" height="410.6" filterUnits="userSpaceOnUse" color-interpolation-filters="sRGB">
<feFlood flood-opacity="0" result="BackgroundImageFix"/>
<feBlend mode="normal" in="SourceGraphic" in2="BackgroundImageFix" result="shape"/>
<feGaussianBlur stdDeviation="60.4" result="effect1_foregroundBlur_1_102"/>
</filter>
<filter id="filter5_f_1_102" x="271.1" y="686.1" width="416.8" height="408.8" filterUnits="userSpaceOnUse" color-interpolation-filters="sRGB">
<feFlood flood-opacity="0" result="BackgroundImageFix"/>
<feBlend mode="normal" in="SourceGraphic" in2="BackgroundImageFix" result="shape"/>
<feGaussianBlur stdDeviation="48.95" result="effect1_foregroundBlur_1_102"/>
</filter>
<filter id="filter6_f_1_102" x="282.1" y="367.1" width="416.8" height="408.8" filterUnits="userSpaceOnUse" color-interpolation-filters="sRGB">
<feFlood flood-opacity="0" result="BackgroundImageFix"/>
<feBlend mode="normal" in="SourceGraphic" in2="BackgroundImageFix" result="shape"/>
<feGaussianBlur stdDeviation="48.95" result="effect1_foregroundBlur_1_102"/>
</filter>
</defs>
</svg>
