<svg width="9" height="6" viewBox="0 0 9 6" fill="none" xmlns="http://www.w3.org/2000/svg">
<path fill-rule="evenodd" clip-rule="evenodd" d="M4.62148 5.19121C4.20528 5.19121 3.81023 5.04964 3.54257 4.80361L0.574009 2.07555C0.222108 1.75157 0.14492 1.30034 0.37614 0.918041C0.607532 0.53521 1.10539 0.290771 1.65275 0.290771L7.59158 0.291302C8.13895 0.290771 8.6368 0.53521 8.86819 0.918041C9.09941 1.30034 9.02222 1.75157 8.67032 2.07502L5.70159 4.80361C5.43376 5.05017 5.03819 5.19227 4.62165 5.19174L4.62148 5.19121ZM4.62148 5.19121C5.03767 5.19121 5.43273 5.04964 5.70039 4.80361L8.66895 2.07555C9.02085 1.75157 9.09804 1.30034 8.86682 0.918041C8.63542 0.53521 8.13757 0.290771 7.59021 0.290771L1.65137 0.291302C1.10401 0.290771 0.606157 0.53521 0.374765 0.918041C0.143545 1.30034 0.220733 1.75157 0.572634 2.07502L3.54136 4.80361C3.8092 5.05017 4.20477 5.19227 4.62131 5.19174L4.62148 5.19121Z" fill="black"/>
</svg>
