<svg width="40" height="34" viewBox="0 0 40 34" fill="none" xmlns="http://www.w3.org/2000/svg">
<g clip-path="url(#clip0_1_298)">
<path d="M26.918 12.5977C26.918 13.6461 27.4102 14.6516 28.2863 15.3929C29.1625 16.1343 30.3508 16.5508 31.5898 16.5508C32.8289 16.5508 34.0172 16.1343 34.8934 15.3929C35.7695 14.6516 36.2617 13.6461 36.2617 12.5977C36.2617 11.5492 35.7695 10.5437 34.8934 9.80237C34.0172 9.06102 32.8289 8.64453 31.5898 8.64453C30.3508 8.64453 29.1625 9.06102 28.2863 9.80237C27.4102 10.5437 26.918 11.5492 26.918 12.5977Z" stroke="white" stroke-width="4" stroke-linecap="round" stroke-linejoin="round"/>
<path d="M8.23047 3.37378C6.99141 3.37378 5.8031 3.79027 4.92695 4.53162C4.05081 5.27298 3.55859 6.27847 3.55859 7.3269V12.5977C3.55859 14.3451 4.37895 16.0209 5.83919 17.2565C7.29944 18.4921 9.27995 19.1863 11.3451 19.1863C13.4101 19.1863 15.3907 18.4921 16.8509 17.2565C18.3112 16.0209 19.1315 14.3451 19.1315 12.5977V7.3269C19.1315 6.27847 18.6393 5.27298 17.7631 4.53162C16.887 3.79027 15.6987 3.37378 14.4596 3.37378" stroke="white" stroke-width="4" stroke-linecap="round" stroke-linejoin="round"/>
<path d="M11.3451 19.1862V29.7279C11.3451 30.4268 11.6732 31.0972 12.2573 31.5914C12.8414 32.0856 13.6336 32.3633 14.4596 32.3633C15.2857 32.3633 16.0779 32.0856 16.662 31.5914C17.2461 31.0972 17.5742 30.4268 17.5742 29.7279V22.1273C17.5742 21.2536 17.9844 20.4157 18.7145 19.7979C19.4447 19.1801 20.4349 18.8331 21.4675 18.8331C22.5 18.8331 23.4903 19.1801 24.2204 19.7979C24.9505 20.4157 25.3607 21.2536 25.3607 22.1273V27.0924C25.3607 27.7914 25.6888 28.4617 26.2729 28.956C26.857 29.4502 27.6492 29.7279 28.4753 29.7279C29.3013 29.7279 30.0935 29.4502 30.6776 28.956C31.2617 28.4617 31.5899 27.7914 31.5899 27.0924V16.5508" stroke="white" stroke-width="4" stroke-linecap="round" stroke-linejoin="round"/>
<path d="M8.23047 2.05615V5.35042" stroke="white" stroke-width="4" stroke-linecap="round" stroke-linejoin="round"/>
<path d="M14.4596 2.05615V5.35042" stroke="white" stroke-width="4" stroke-linecap="round" stroke-linejoin="round"/>
</g>
<defs>
<clipPath id="clip0_1_298">
<rect width="39" height="33" fill="white" transform="translate(0.410156 0.709717)"/>
</clipPath>
</defs>
</svg>
