<svg width="38" height="37" viewBox="0 0 38 37" fill="none" xmlns="http://www.w3.org/2000/svg">
<path d="M6.50033 24.6667C4.79745 24.6667 3.41699 23.2863 3.41699 21.5834C3.41699 19.8805 4.79745 18.5 6.50033 18.5C8.2032 18.5 9.58366 19.8805 9.58366 21.5834C9.58145 23.2853 8.20229 24.6645 6.50033 24.6667ZM6.50033 9.25004C4.79745 9.25004 3.41699 7.86959 3.41699 6.16671C3.41699 4.46383 4.79745 3.08337 6.50033 3.08337C8.2032 3.08337 9.58366 4.46383 9.58366 6.16671C9.58145 7.86868 8.20229 9.24784 6.50033 9.25004ZM21.917 9.25004C20.2141 9.25004 18.8337 7.86959 18.8337 6.16671C18.8337 4.46383 20.2141 3.08337 21.917 3.08337C23.6199 3.08337 25.0003 4.46383 25.0003 6.16671C24.9981 7.86868 23.619 9.24784 21.917 9.25004ZM21.917 24.6667C20.2141 24.6667 18.8337 23.2863 18.8337 21.5834C18.8337 19.8805 20.2141 18.5 21.917 18.5C23.6199 18.5 25.0003 19.8805 25.0003 21.5834C24.9981 23.2853 23.619 24.6645 21.917 24.6667Z" fill="#F467B2"/>
<path d="M15.7503 33.9167C14.0474 33.9167 12.667 32.5363 12.667 30.8334C12.667 29.1305 14.0474 27.75 15.7503 27.75C17.4532 27.75 18.8337 29.1305 18.8337 30.8334C18.8315 32.5353 17.4523 33.9145 15.7503 33.9167ZM15.7503 18.5C14.0474 18.5 12.667 17.1196 12.667 15.4167C12.667 13.7138 14.0474 12.3334 15.7503 12.3334C17.4532 12.3334 18.8337 13.7138 18.8337 15.4167C18.8315 17.1187 17.4523 18.4978 15.7503 18.5ZM31.167 18.5C29.4641 18.5 28.0837 17.1196 28.0837 15.4167C28.0837 13.7138 29.4641 12.3334 31.167 12.3334C32.8699 12.3334 34.2503 13.7138 34.2503 15.4167C34.2481 17.1187 32.869 18.4978 31.167 18.5ZM31.167 33.9167C29.4641 33.9167 28.0837 32.5363 28.0837 30.8334C28.0837 29.1305 29.4641 27.75 31.167 27.75C32.8699 27.75 34.2503 29.1305 34.2503 30.8334C34.2481 32.5353 32.869 33.9145 31.167 33.9167Z" fill="#ED017F"/>
<path d="M19.2626 7.70833C18.6905 6.76016 18.6905 5.57317 19.2626 4.625H9.15442C9.72652 5.57317 9.72652 6.76016 9.15442 7.70833H19.2626ZM6.50016 18.5C7.04311 18.5031 7.57535 18.6512 8.04183 18.9291V8.82092C7.09366 9.39302 5.90667 9.39302 4.9585 8.82092V18.9291C5.42497 18.6512 5.95722 18.5031 6.50016 18.5Z" fill="#FCE0EF"/>
<path d="M31.1668 27.75C31.7098 27.7531 32.242 27.9012 32.7085 28.1791V18.0709C31.7603 18.643 30.5733 18.643 29.6252 18.0709V28.1791C30.0916 27.9012 30.6239 27.7531 31.1668 27.75ZM15.7502 27.75C16.2931 27.7531 16.8254 27.9012 17.2918 28.1791V18.0709C16.3437 18.643 15.1567 18.643 14.2085 18.0709V28.1791C14.675 27.9012 15.2072 27.7531 15.7502 27.75Z" fill="#F467B2"/>
<path d="M19.2625 20.0416H17.2917V23.125H19.2625C18.6904 22.1768 18.6904 20.9898 19.2625 20.0416ZM14.2084 23.125V20.0416H9.1543C9.72639 20.9898 9.72639 22.1768 9.1543 23.125H14.2084Z" fill="#FCE0EF"/>
<path d="M28.5125 29.2917H18.4043C18.9764 30.2398 18.9764 31.4268 18.4043 32.375H28.5125C27.9404 31.4268 27.9404 30.2398 28.5125 29.2917ZM28.5125 16.9583C27.9404 16.0102 27.9404 14.8232 28.5125 13.875H18.4043C18.9764 14.8232 18.9764 16.0102 18.4043 16.9583H28.5125Z" fill="#F467B2"/>
<path d="M23.4583 13.875V8.82092C22.5102 9.39302 21.3232 9.39302 20.375 8.82092V13.875H23.4583ZM20.375 16.9583V18.9291C21.3232 18.357 22.5102 18.357 23.4583 18.9291V16.9583H20.375Z" fill="#FCE0EF"/>
</svg>
