<svg width="40" height="35" viewBox="0 0 40 35" fill="none" xmlns="http://www.w3.org/2000/svg">
<g clip-path="url(#clip0_1_308)">
<path d="M35.5256 4.52515H4.22541C3.49938 4.52515 2.91083 5.0854 2.91083 5.77652V25.7984C2.91083 26.4895 3.49938 27.0499 4.22541 27.0499H35.7754C36.5015 27.0499 37.0901 26.4895 37.0901 25.7984V5.87999C37.0901 5.13174 36.3896 4.52515 35.5256 4.52515Z" stroke="#7F7F7F" stroke-width="4" stroke-linecap="round" stroke-linejoin="round"/>
<path d="M17.3714 27.0498L14.7422 32.742" stroke="#7F7F7F" stroke-width="4" stroke-linecap="round" stroke-linejoin="round"/>
<path d="M22.6296 27.0498L25.2587 32.742" stroke="#7F7F7F" stroke-width="4" stroke-linecap="round" stroke-linejoin="round"/>
<path d="M12.1128 32.7422H27.8878" stroke="#7F7F7F" stroke-width="4" stroke-linecap="round" stroke-linejoin="round"/>
<path d="M22.9747 8.83618H17.0258V13.2116H11.973V18.3635H17.0258V22.7391H22.9747V18.3635H28.027V13.2116H22.9747V8.83618Z" stroke="#7F7F7F" stroke-width="2" stroke-linecap="round" stroke-linejoin="round"/>
</g>
<defs>
<clipPath id="clip0_1_308">
<rect width="39.18" height="33.93" fill="white" transform="translate(0.410156 0.709717)"/>
</clipPath>
</defs>
</svg>
