<svg width="38" height="37" viewBox="0 0 38 37" fill="none" xmlns="http://www.w3.org/2000/svg">
<path d="M28.0103 22.542L24.2702 25.981C22.3471 27.6574 20.0876 28.9032 17.6434 29.6345L18.6358 34.2644C18.6865 34.5008 18.7921 34.722 18.944 34.9101C19.0959 35.0981 19.29 35.2479 19.5104 35.3471C19.7309 35.4464 19.9716 35.4925 20.2131 35.4816C20.4547 35.4707 20.6902 35.4031 20.9009 35.2844L26.9215 31.8887C27.7689 31.3738 28.4308 30.6031 28.8118 29.6877C29.1928 28.7723 29.2731 27.7595 29.0413 26.7955L28.0103 22.542ZM11.8676 13.5294L15.0877 9.7063L11.0719 8.73739C10.0957 8.39696 9.02919 8.42132 8.06948 8.80597C7.10977 9.19061 6.32167 9.90956 5.85076 10.83L2.4588 16.8424C2.33995 17.053 2.27231 17.2886 2.26135 17.5301C2.25039 17.7717 2.29642 18.0125 2.39571 18.2329C2.495 18.4534 2.64478 18.6475 2.83293 18.7994C3.02108 18.9513 3.24233 19.0568 3.47879 19.1074L8.21595 20.1229C9.0013 17.7122 10.2408 15.4741 11.8676 13.5294V13.5294ZM26.4643 13.5917C26.9217 13.5917 27.3688 13.4561 27.749 13.202C28.1293 12.9479 28.4257 12.5867 28.6008 12.1642C28.7758 11.7416 28.8216 11.2766 28.7324 10.828C28.6431 10.3795 28.4229 9.96742 28.0995 9.64401C27.7761 9.3206 27.364 9.10036 26.9154 9.01113C26.4669 8.9219 26.0019 8.9677 25.5793 9.14272C25.1568 9.31775 24.7956 9.61415 24.5415 9.99444C24.2874 10.3747 24.1518 10.8218 24.1518 11.2792C24.152 11.8924 24.3957 12.4805 24.8294 12.9141C25.263 13.3478 25.851 13.5915 26.4643 13.5917V13.5917Z" fill="#ED017F"/>
<path d="M35.5098 3.17891C35.4402 2.91486 35.3018 2.67399 35.1087 2.48091C34.9156 2.28782 34.6748 2.14944 34.4107 2.07987C31.2482 1.25781 27.9178 1.34596 24.8032 2.33417C21.6886 3.32239 18.9166 5.17045 16.8065 7.66543L11.8676 13.5295C9.40034 16.4723 7.83515 20.0648 7.36006 23.8755C7.32959 24.1097 7.35331 24.3478 7.4294 24.5713C7.50549 24.7949 7.63191 24.998 7.79891 25.165L12.5782 29.9443C12.7213 30.0875 12.8912 30.2011 13.0783 30.2786C13.2653 30.3561 13.4657 30.396 13.6682 30.396C13.7126 30.396 13.757 30.3938 13.8022 30.39C17.6714 30.0703 21.3381 28.5259 24.2701 25.981L29.9174 20.7885C32.4212 18.6839 34.276 15.9117 35.266 12.7943C36.256 9.67689 36.3406 6.34247 35.5098 3.17891V3.17891ZM26.4642 13.5917C26.0069 13.5917 25.5598 13.456 25.1795 13.2019C24.7992 12.9478 24.5028 12.5867 24.3278 12.1641C24.1527 11.7416 24.1069 11.2766 24.1962 10.828C24.2854 10.3794 24.5056 9.96739 24.8291 9.64399C25.1525 9.32058 25.5645 9.10033 26.0131 9.0111C26.4617 8.92188 26.9266 8.96767 27.3492 9.1427C27.7717 9.31773 28.1329 9.61412 28.387 9.99441C28.6411 10.3747 28.7767 10.8218 28.7767 11.2792C28.7765 11.8924 28.5328 12.4805 28.0992 12.9141C27.6655 13.3477 27.0775 13.5914 26.4642 13.5917V13.5917Z" fill="#F899CC"/>
</svg>
