<svg width="54" height="54" viewBox="0 0 54 54" fill="none" xmlns="http://www.w3.org/2000/svg">
<path fill-rule="evenodd" clip-rule="evenodd" d="M27.0069 53.6939C41.6009 53.6939 53.4317 41.8631 53.4317 27.2691C53.4317 12.675 41.6009 0.844238 27.0069 0.844238C12.4128 0.844238 0.582031 12.675 0.582031 27.2691C0.582031 41.8631 12.4128 53.6939 27.0069 53.6939ZM19.6252 26.0691C21.607 26.0691 23.2135 24.4626 23.2135 22.4809C23.2135 20.4992 21.607 18.8927 19.6252 18.8927C17.6435 18.8927 16.037 20.4992 16.037 22.4809C16.037 24.4626 17.6435 26.0691 19.6252 26.0691ZM37.9761 22.4809C37.9761 24.4626 36.3696 26.0691 34.3879 26.0691C32.4062 26.0691 30.7996 24.4626 30.7996 22.4809C30.7996 20.4992 32.4062 18.8927 34.3879 18.8927C36.3696 18.8927 37.9761 20.4992 37.9761 22.4809ZM27.0067 42.2673C33.065 42.2673 37.9763 37.2543 37.9763 31.1959H16.0371C16.0371 37.2543 20.9483 42.2673 27.0067 42.2673Z" fill="#3A4DE9"/>
</svg>
