<svg width="40" height="34" viewBox="0 0 40 34" fill="none" xmlns="http://www.w3.org/2000/svg">
<path fill-rule="evenodd" clip-rule="evenodd" d="M3.66016 6.13965C3.66016 5.12712 4.38769 4.30631 5.28516 4.30631H24.7852C25.6826 4.30631 26.4102 5.12712 26.4102 6.13964V14.1806V20.0986V28.1396C26.4102 29.1522 25.6826 29.973 24.7852 29.973C23.8877 29.973 23.1602 30.7938 23.1602 31.8063C23.1602 32.8188 23.8877 33.6396 24.7852 33.6396C27.4775 33.6396 29.6602 31.1772 29.6602 28.1396V24.0146L35.019 26.2818C37.1437 27.1807 39.4102 25.4087 39.4102 22.8486V11.4306C39.4102 8.87055 37.1437 7.09853 35.019 7.99744L29.6602 10.2646V6.13964C29.6602 3.10208 27.4775 0.639648 24.7852 0.639648H5.28516C2.59277 0.639648 0.410156 3.10208 0.410156 6.13965V20.8063C0.410156 21.8188 1.13769 22.6396 2.03516 22.6396C2.93262 22.6396 3.66016 21.8188 3.66016 20.8063V6.13965ZM29.6602 20.0986L36.1602 22.8486V11.4306L29.6602 14.1806V20.0986ZM11.7852 17.1396C12.6826 17.1396 13.4102 16.3188 13.4102 15.3063C13.4102 14.2938 12.6826 13.473 11.7852 13.473C10.8877 13.473 10.1602 14.2938 10.1602 15.3063C10.1602 16.3188 10.8877 17.1396 11.7852 17.1396ZM11.7852 20.8063C14.4775 20.8063 16.6602 18.3439 16.6602 15.3063C16.6602 12.2687 14.4775 9.80631 11.7852 9.80631C9.09277 9.80631 6.91016 12.2687 6.91016 15.3063C6.91016 18.3439 9.09277 20.8063 11.7852 20.8063ZM9.91957 26.725C10.511 26.4486 11.145 26.3063 11.7852 26.3063C12.4254 26.3063 13.0593 26.4486 13.6507 26.725C14.2422 27.0014 14.7796 27.4065 15.2323 27.9172C15.685 28.4279 16.0441 29.0343 16.2891 29.7016C16.5341 30.3688 16.6602 31.084 16.6602 31.8063C16.6602 32.8188 17.3877 33.6396 18.2852 33.6396C19.1826 33.6396 19.9102 32.8188 19.9102 31.8063C19.9102 30.6025 19.7 29.4105 19.2917 28.2984C18.8834 27.1862 18.2849 26.1757 17.5304 25.3245C16.7759 24.4733 15.8802 23.7981 14.8945 23.3374C13.9087 22.8768 12.8521 22.6397 11.7852 22.6397C10.7182 22.6397 9.66162 22.8768 8.67585 23.3374C7.69008 23.7981 6.79439 24.4733 6.03991 25.3245C5.28544 26.1757 4.68695 27.1862 4.27864 28.2984C3.87032 29.4105 3.66016 30.6025 3.66016 31.8063C3.66016 32.8188 4.38769 33.6396 5.28516 33.6396C6.18262 33.6396 6.91016 32.8188 6.91016 31.8063C6.91016 31.084 7.03625 30.3688 7.28124 29.7016C7.52624 29.0343 7.88533 28.4279 8.33801 27.9172C8.7907 27.4065 9.32811 27.0014 9.91957 26.725Z" fill="#7F7F7F"/>
</svg>
