<svg width="9" height="6" viewBox="0 0 9 6" fill="none" xmlns="http://www.w3.org/2000/svg">
<path fill-rule="evenodd" clip-rule="evenodd" d="M4.62148 0.644086C5.03767 0.644086 5.43273 0.785659 5.70039 1.03169L8.66895 3.75975C9.02085 4.08373 9.09804 4.53496 8.86682 4.91726C8.63542 5.30009 8.13757 5.54453 7.59021 5.54453L1.65137 5.544C1.10401 5.54453 0.606157 5.30009 0.374765 4.91726C0.143545 4.53496 0.220733 4.08373 0.572634 3.76028L3.54136 1.03169C3.8092 0.785129 4.20477 0.643026 4.62131 0.643556L4.62148 0.644086ZM4.62148 0.644086C4.20528 0.644086 3.81023 0.785659 3.54257 1.03169L0.574009 3.75975C0.222108 4.08373 0.14492 4.53496 0.37614 4.91726C0.607532 5.30009 1.10539 5.54453 1.65275 5.54453L7.59158 5.544C8.13895 5.54453 8.6368 5.30009 8.86819 4.91726C9.09941 4.53496 9.02222 4.08373 8.67032 3.76028L5.70159 1.03169C5.43376 0.785129 5.03819 0.643026 4.62165 0.643556L4.62148 0.644086Z" fill="#F10A0A"/>
</svg>
