<svg width="9" height="6" viewBox="0 0 9 6" fill="none" xmlns="http://www.w3.org/2000/svg">
<path fill-rule="evenodd" clip-rule="evenodd" d="M4.62148 0.207075C5.03767 0.207075 5.43273 0.348648 5.70039 0.594677L8.66895 3.32274C9.02085 3.64671 9.09804 4.09795 8.86682 4.48025C8.63542 4.86308 8.13757 5.10751 7.59021 5.10751L1.65137 5.10698C1.10401 5.10751 0.606157 4.86308 0.374765 4.48025C0.143545 4.09795 0.220733 3.64671 0.572634 3.32327L3.54136 0.594677C3.8092 0.348117 4.20477 0.206014 4.62131 0.206544L4.62148 0.207075ZM4.62148 0.207075C4.20528 0.207075 3.81023 0.348648 3.54257 0.594677L0.574009 3.32274C0.222108 3.64671 0.14492 4.09795 0.37614 4.48025C0.607532 4.86308 1.10539 5.10751 1.65275 5.10751L7.59158 5.10698C8.13895 5.10751 8.6368 4.86308 8.86819 4.48025C9.09941 4.09795 9.02222 3.64671 8.67032 3.32327L5.70159 0.594677C5.43376 0.348117 5.03819 0.206014 4.62165 0.206544L4.62148 0.207075Z" fill="black"/>
</svg>
