<svg width="37" height="37" viewBox="0 0 37 37" fill="none" xmlns="http://www.w3.org/2000/svg">
<path d="M9.24984 25.4375C8.18264 25.4375 7.13942 25.1211 6.25208 24.5282C5.36474 23.9353 4.67314 23.0926 4.26474 22.1066C3.85634 21.1206 3.74949 20.0357 3.95769 18.989C4.16589 17.9423 4.67979 16.9809 5.43441 16.2263C6.18903 15.4717 7.15048 14.9578 8.19716 14.7496C9.24385 14.5414 10.3288 14.6482 11.3147 15.0566C12.3007 15.465 13.1434 16.1566 13.7363 17.0439C14.3292 17.9313 14.6457 18.9745 14.6457 20.0417C14.6439 21.4722 14.0749 22.8437 13.0634 23.8552C12.0518 24.8668 10.6804 25.4358 9.24984 25.4375Z" fill="#F899CC"/>
<path d="M13.3202 23.5441C12.8207 24.1372 12.1976 24.6139 11.4945 24.941C10.7914 25.2681 10.0253 25.4375 9.24984 25.4375C8.47439 25.4375 7.70831 25.2681 7.00521 24.941C6.30211 24.6139 5.67899 24.1372 5.17944 23.5441C4.06942 24.2323 3.15297 25.1918 2.51648 26.3323C1.88 27.4727 1.54446 28.7565 1.5415 30.0625C1.5415 30.4714 1.70393 30.8635 1.99305 31.1527C2.28217 31.4418 2.6743 31.6042 3.08317 31.6042H15.4165C15.8254 31.6042 16.2175 31.4418 16.5066 31.1527C16.7957 30.8635 16.9582 30.4714 16.9582 30.0625C16.9552 28.7565 16.6197 27.4727 15.9832 26.3323C15.3467 25.1918 14.4303 24.2323 13.3202 23.5441V23.5441ZM27.7498 25.4375C26.6826 25.4375 25.6394 25.1211 24.7521 24.5282C23.8647 23.9353 23.1731 23.0926 22.7647 22.1066C22.3563 21.1206 22.2495 20.0357 22.4577 18.989C22.6659 17.9423 23.1798 16.9809 23.9344 16.2263C24.689 15.4717 25.6505 14.9578 26.6972 14.7496C27.7439 14.5414 28.8288 14.6482 29.8147 15.0566C30.8007 15.465 31.6434 16.1566 32.2363 17.0439C32.8292 17.9313 33.1457 18.9745 33.1457 20.0417C33.1439 21.4722 32.5749 22.8437 31.5634 23.8552C30.5518 24.8668 29.1804 25.4358 27.7498 25.4375Z" fill="#F467B2"/>
<path d="M31.8202 23.5441C31.3207 24.1372 30.6976 24.6139 29.9945 24.941C29.2914 25.2681 28.5253 25.4375 27.7498 25.4375C26.9744 25.4375 26.2083 25.2681 25.5052 24.941C24.8021 24.6139 24.179 24.1372 23.6794 23.5441C22.5694 24.2323 21.653 25.1918 21.0165 26.3323C20.38 27.4727 20.0445 28.7565 20.0415 30.0626C20.0415 30.4714 20.2039 30.8636 20.493 31.1527C20.7822 31.4418 21.1743 31.6042 21.5832 31.6042H33.9165C34.3254 31.6042 34.7175 31.4418 35.0066 31.1527C35.2957 30.8636 35.4582 30.4714 35.4582 30.0626C35.4552 28.7565 35.1197 27.4727 34.4832 26.3323C33.8467 25.1918 32.9303 24.2323 31.8202 23.5441V23.5441Z" fill="#F13499"/>
<path d="M26.5276 8.93085L23.4442 5.84751C23.1543 5.56275 22.7636 5.40402 22.3572 5.40586C21.9508 5.4077 21.5615 5.56996 21.2742 5.85734C20.9868 6.14472 20.8245 6.53395 20.8227 6.94036C20.8208 7.34677 20.9796 7.73746 21.2643 8.02743L21.716 8.47914H15.2843L15.736 8.02743C16.0221 7.73772 16.1819 7.34659 16.1806 6.93945C16.1793 6.5323 16.017 6.1422 15.7291 5.8543C15.4412 5.56641 15.0511 5.40411 14.644 5.40284C14.2368 5.40157 13.8457 5.56142 13.556 5.84751L10.4727 8.93085C10.3295 9.07396 10.2159 9.24388 10.1384 9.43091C10.0609 9.61794 10.021 9.8184 10.021 10.0208C10.021 10.2233 10.0609 10.4238 10.1384 10.6108C10.2159 10.7978 10.3295 10.9677 10.4727 11.1109L13.556 14.1942C13.8457 14.4803 14.2368 14.6401 14.644 14.6388C15.0511 14.6375 15.4412 14.4752 15.7291 14.1873C16.017 13.8994 16.1793 13.5093 16.1806 13.1021C16.1819 12.695 16.022 12.3039 15.7359 12.0142L15.2842 11.5625H21.7159L21.2641 12.0142C20.9751 12.3033 20.8127 12.6954 20.8127 13.1042C20.8127 13.513 20.9751 13.9051 21.2642 14.1942C21.5533 14.4833 21.9454 14.6457 22.3543 14.6456C22.7631 14.6456 23.1552 14.4832 23.4442 14.1941L26.5276 11.1108C26.6708 10.9676 26.7843 10.7977 26.8618 10.6107C26.9393 10.4237 26.9792 10.2232 26.9792 10.0208C26.9792 9.81837 26.9393 9.61791 26.8618 9.43089C26.7843 9.24388 26.6708 9.07396 26.5276 8.93085V8.93085Z" fill="#ED017F"/>
</svg>
