<svg width="40" height="34" viewBox="0 0 40 34" fill="none" xmlns="http://www.w3.org/2000/svg">
<path d="M29.6094 0.639902C29.6536 0.639902 29.6984 0.641171 29.7437 0.644216C30.2863 0.680381 30.9064 0.956881 31.7339 1.68526C33.8316 3.53157 36.7236 9.349 38.2539 15.6442C39.7841 21.9395 39.9884 28.6191 37.6834 32.5168C37.2853 33.1901 36.3967 33.65 35.4 33.6393C34.4181 33.6287 33.4121 33.1523 32.8547 32.4415C32.7564 32.2549 31.9612 30.7492 30.7987 28.9641C29.5624 27.0657 28.0386 24.9433 26.3932 24.0435C22.3695 21.8431 17.4521 21.8431 13.4284 24.0435C11.783 24.9434 10.2594 27.0658 9.02295 28.9642C7.86042 30.7493 7.06505 32.2549 6.96701 32.4416C6.40954 33.1524 5.40348 33.6288 4.42156 33.6395C3.42502 33.6502 2.53652 33.1903 2.13831 32.517C-0.165894 28.6208 0.0347977 21.9118 1.56372 15.6036C3.09265 9.29533 5.99028 3.48195 8.07879 1.693C9.18394 0.746364 9.92404 0.58521 10.6052 0.723525C11.2865 0.86222 11.9842 1.38299 12.803 2.12824C14.4407 3.61874 16.5418 5.9376 19.911 5.9376C23.2955 5.9376 25.4007 3.58829 27.0362 2.08561C27.8536 1.33439 28.5481 0.813494 29.2221 0.679874C29.3485 0.654749 29.4768 0.640283 29.6095 0.639648L29.6094 0.639902ZM9.14578 6.82599C8.73792 6.82599 8.34676 7.03989 8.05835 7.42065C7.76995 7.80141 7.60792 8.31782 7.60792 8.85629C7.60792 9.39476 7.76995 9.91118 8.05835 10.2919C8.34676 10.6727 8.73792 10.8866 9.14578 10.8866C9.55365 10.8866 9.94481 10.6727 10.2332 10.2919C10.5216 9.91118 10.6836 9.39476 10.6836 8.85629C10.6836 8.31782 10.5216 7.80141 10.2332 7.42065C9.94481 7.03989 9.55365 6.82599 9.14578 6.82599ZM31.5398 7.87984H29.8097V11.9405H26.734V14.2245H29.8097V18.2852H31.5398V14.2245H34.6155V11.9405H31.5398V7.87984ZM12.2215 10.8866C11.8136 10.8866 11.4225 11.1005 11.1341 11.4813C10.8457 11.862 10.6836 12.3784 10.6836 12.9169C10.6836 13.4554 10.8457 13.9718 11.1341 14.3525C11.4225 14.7333 11.8136 14.9472 12.2215 14.9472C12.6294 14.9472 13.0205 14.7333 13.309 14.3525C13.5974 13.9718 13.7594 13.4554 13.7594 12.9169C13.7594 12.3784 13.5974 11.862 13.309 11.4813C13.0205 11.1005 12.6294 10.8866 12.2215 10.8866ZM6.07005 10.8866C5.66219 10.8866 5.27102 11.1005 4.98262 11.4813C4.69421 11.862 4.53219 12.3784 4.53219 12.9169C4.53219 13.4554 4.69421 13.9718 4.98262 14.3525C5.27102 14.7333 5.66219 14.9472 6.07005 14.9472C6.47792 14.9472 6.86908 14.7333 7.15749 14.3525C7.44589 13.9718 7.60792 13.4554 7.60792 12.9169C7.60792 12.3784 7.44589 11.862 7.15749 11.4813C6.86908 11.1005 6.47792 10.8866 6.07005 10.8866ZM9.14578 14.9472C8.73792 14.9472 8.34676 15.1611 8.05835 15.5419C7.76995 15.9226 7.60792 16.439 7.60792 16.9775C7.60792 17.516 7.76995 18.0324 8.05835 18.4132C8.34676 18.7939 8.73792 19.0078 9.14578 19.0078C9.55365 19.0078 9.94481 18.7939 10.2332 18.4132C10.5216 18.0324 10.6836 17.516 10.6836 16.9775C10.6836 16.439 10.5216 15.9226 10.2332 15.5419C9.94481 15.1611 9.55365 14.9472 9.14578 14.9472ZM24.5244 15.8355H21.4487V18.1196H24.5244V15.8355ZM18.373 15.8355H15.6916V18.1196H18.373V15.8355Z" fill="#7F7F7F"/>
</svg>
