<svg width="39" height="34" viewBox="0 0 39 34" fill="none" xmlns="http://www.w3.org/2000/svg">
<path d="M29.1992 0.930185C29.2434 0.930185 29.2882 0.931454 29.3335 0.934499C29.8762 0.970664 30.4962 1.24716 31.3238 1.97554C33.4214 3.82185 36.3134 9.63929 37.8438 15.9345C39.3739 22.2298 39.5783 28.9094 37.2732 32.8071C36.8751 33.4804 35.9865 33.9403 34.9899 33.9296C34.0079 33.919 33.002 33.4426 32.4445 32.7317C32.3463 32.5452 31.551 31.0395 30.3886 29.2543C29.1522 27.356 27.6285 25.2336 25.9831 24.3338C21.9594 22.1334 17.0419 22.1334 13.0182 24.3338C11.3729 25.2337 9.84923 27.3561 8.61279 29.2545C7.45026 31.0396 6.6549 32.5452 6.55686 32.7319C5.99938 33.4427 4.99333 33.9191 4.0114 33.9297C3.01487 33.9405 2.12636 33.4805 1.72815 32.8072C-0.57605 28.9111 -0.375359 22.2021 1.15357 15.8939C2.68249 9.58561 5.58012 3.77224 7.66864 1.98328C8.77378 1.03665 9.51389 0.875493 10.1951 1.01381C10.8763 1.1525 11.574 1.67327 12.3929 2.41853C14.0305 3.90903 16.1316 6.22789 19.5009 6.22789C22.8853 6.22789 24.9906 3.87857 26.626 2.37589C27.4435 1.62467 28.1379 1.10378 28.812 0.970157C28.9384 0.945032 29.0667 0.930566 29.1993 0.929932L29.1992 0.930185ZM8.73563 7.11627C8.32776 7.11627 7.9366 7.33018 7.6482 7.71093C7.35979 8.09169 7.19776 8.6081 7.19776 9.14658C7.19776 9.68505 7.35979 10.2015 7.6482 10.5822C7.9366 10.963 8.32776 11.1769 8.73563 11.1769C9.14349 11.1769 9.53466 10.963 9.82306 10.5822C10.1115 10.2015 10.2735 9.68505 10.2735 9.14658C10.2735 8.6081 10.1115 8.09169 9.82306 7.71093C9.53466 7.33018 9.14349 7.11627 8.73563 7.11627ZM31.1296 8.17013H29.3995V12.2307H26.3238V14.5148H29.3995V18.5754H31.1296V14.5148H34.2054V12.2307H31.1296V8.17013ZM11.8114 11.1769C11.4035 11.1769 11.0123 11.3908 10.7239 11.7715C10.4355 12.1523 10.2735 12.6687 10.2735 13.2072C10.2735 13.7457 10.4355 14.2621 10.7239 14.6428C11.0123 15.0236 11.4035 15.2375 11.8114 15.2375C12.2192 15.2375 12.6104 15.0236 12.8988 14.6428C13.1872 14.2621 13.3492 13.7457 13.3492 13.2072C13.3492 12.6687 13.1872 12.1523 12.8988 11.7715C12.6104 11.3908 12.2192 11.1769 11.8114 11.1769ZM5.6599 11.1769C5.25203 11.1769 4.86087 11.3908 4.57246 11.7715C4.28406 12.1523 4.12203 12.6687 4.12203 13.2072C4.12203 13.7457 4.28406 14.2621 4.57246 14.6428C4.86087 15.0236 5.25203 15.2375 5.6599 15.2375C6.06776 15.2375 6.45893 15.0236 6.74733 14.6428C7.03574 14.2621 7.19776 13.7457 7.19776 13.2072C7.19776 12.6687 7.03574 12.1523 6.74733 11.7715C6.45893 11.3908 6.06776 11.1769 5.6599 11.1769ZM8.73563 15.2375C8.32776 15.2375 7.9366 15.4514 7.6482 15.8322C7.35979 16.2129 7.19776 16.7293 7.19776 17.2678C7.19776 17.8063 7.35979 18.3227 7.6482 18.7034C7.9366 19.0842 8.32776 19.2981 8.73563 19.2981C9.14349 19.2981 9.53466 19.0842 9.82306 18.7034C10.1115 18.3227 10.2735 17.8063 10.2735 17.2678C10.2735 16.7293 10.1115 16.2129 9.82306 15.8322C9.53466 15.4514 9.14349 15.2375 8.73563 15.2375ZM24.1143 16.1258H21.0385V18.4098H24.1143V16.1258ZM17.9628 16.1258H15.2815V18.4098H17.9628V16.1258Z" fill="white"/>
</svg>
